# Blender 4.1.1
# www.blender.org
mtllib albatross.mtl
o Cylinder
v 0.000000 0.640000 -2.267329
v 0.000000 0.640000 2.100000
v 0.866025 0.500000 -2.100000
v 0.866025 0.500000 2.100000
v 0.866025 -0.500000 -2.100000
v 0.866025 -0.500000 2.100000
v 0.000000 -0.640000 -2.267329
v 0.000000 -0.640000 2.100000
v -0.866025 -0.500000 -2.100000
v -0.866025 -0.500000 2.100000
v -0.866025 0.500000 -2.100000
v -0.866025 0.500000 2.100000
v 4.123147 -0.053307 -1.100000
v 4.123147 -0.053307 0.100000
v -4.123147 -0.053307 -1.100000
v -4.123147 -0.053307 0.100000
v 0.000000 0.231510 4.100000
v 0.000000 -0.231510 4.100000
v 0.866025 0.000000 -2.100000
v 1.058471 -0.000000 2.100000
v -0.866025 0.000000 -2.100000
v -1.058471 -0.000000 2.100000
v 0.000000 0.000000 -2.267329
v 0.000000 -0.000000 2.100000
v 0.000000 -0.000000 4.313798
v 4.123147 0.153307 -0.998213
v 4.123147 0.153307 -0.001787
v -4.123147 0.153307 -0.998213
v -4.123147 0.153307 -0.001787
v 4.774178 0.050000 0.011769
v 4.774178 0.050000 -1.011769
v -4.774178 0.050000 0.011769
v -4.774178 0.050000 -1.011769
vn 0.1596 -0.9872 -0.0000
vn -0.1596 -0.9872 -0.0000
vn 0.1897 -0.0000 -0.9818
vn 0.1564 -0.9677 -0.1976
vn -0.1564 -0.9677 -0.1976
vn -0.1564 0.9677 -0.1976
vn 0.1564 0.9677 -0.1976
vn -0.1897 -0.0000 -0.9818
vn 0.1897 -0.0000 0.9818
vn -0.1567 0.9876 -0.0000
vn 0.1567 0.9876 -0.0000
vn 0.1058 -0.9944 -0.0000
vn 0.1058 0.9944 -0.0000
vn 0.1567 -0.9876 -0.0000
vn 0.1596 0.9872 -0.0000
vn -0.1058 -0.9944 -0.0000
vn -0.1058 0.9944 -0.0000
vn -0.1567 -0.9876 -0.0000
vn 0.1359 -0.9907 -0.0000
vn 0.8297 -0.3787 -0.4101
vn -0.8297 -0.3787 -0.4101
vn -0.8523 -0.3280 -0.4075
vn 0.8523 -0.3280 -0.4075
vn 0.8523 0.3280 -0.4075
vn 0.8297 0.3787 -0.4101
vn -0.8297 0.3787 -0.4101
vn -0.8523 0.3280 -0.4075
vn 0.1359 0.9907 -0.0000
vn -0.1359 -0.9907 -0.0000
vn 0.2935 -0.0000 -0.9560
vn 0.3204 -0.0000 -0.9473
vn 0.2720 0.4253 -0.8632
vn 0.0514 0.4413 -0.8959
vn 0.2935 -0.0000 0.9560
vn 0.3204 -0.0000 0.9473
vn 0.2720 -0.4253 0.8632
vn -0.0514 0.4413 -0.8959
vn 0.5324 -0.2049 0.8213
vn -0.5458 -0.2101 -0.8112
vn 0.5101 0.3801 0.7716
vn 0.0514 0.4413 0.8959
vn 0.5324 0.2049 -0.8213
vn 0.5458 -0.2101 -0.8112
vn 0.5101 -0.3801 -0.7716
vn 0.0514 -0.4413 -0.8959
vt 0.000000 0.000000
vt 0.166667 1.000000
vt -0.000000 1.000000
vt 0.833333 1.000000
vt 0.666667 1.000000
vt 0.500000 1.000000
vt 0.333333 1.000000
vt 0.666667 0.500000
vt 0.833333 0.500000
vt 0.166667 0.500000
s 0
f 1/1/1 2/1/1 11/1/1
f 8/1/2 9/1/2 7/1/2
f 10/1/2 9/1/2 8/1/2
f 2/1/1 12/1/1 11/1/1
f 19/1/3 1/1/3 3/1/3
f 7/1/3 19/1/3 5/1/3
f 17/1/4 12/2/4 2/3/4
f 4/4/5 17/1/5 2/3/5
f 18/1/6 6/5/6 8/6/6
f 10/7/7 18/1/7 8/6/7
f 21/1/8 7/1/8 9/1/8
f 21/1/9 1/1/9 11/1/9
f 28/1/10 33/1/10 29/2/10
f 31/8/11 27/1/11 30/1/11
f 12/1/12 29/1/12 11/1/12
f 4/1/13 27/1/13 3/1/13
f 14/1/14 13/1/14 31/8/14
f 30/1/14 14/1/14 31/8/14
f 7/1/1 5/1/1 8/1/1
f 6/1/1 8/1/1 5/1/1
f 3/1/15 1/1/15 2/1/15
f 4/1/15 3/1/15 2/1/15
f 27/5/16 3/9/16 26/8/16
f 29/2/17 11/10/17 28/10/17
f 26/1/18 31/1/18 27/1/18
f 32/2/14 33/10/14 29/2/14
f 19/1/3 23/1/3 1/1/3
f 23/1/3 19/1/3 7/1/3
f 21/1/8 23/1/8 7/1/8
f 23/1/8 21/1/8 1/1/8
f 13/1/19 14/1/19 5/1/19
f 6/1/19 5/1/19 14/1/19
f 17/1/20 25/1/20 12/2/20
f 17/1/21 4/4/21 25/1/21
f 4/4/22 20/1/22 25/1/22
f 22/1/23 12/2/23 25/1/23
f 10/1/24 22/1/24 25/1/24
f 25/1/25 18/1/25 10/1/25
f 25/1/26 6/5/26 18/1/26
f 20/1/27 6/5/27 25/1/27
f 15/1/28 16/1/28 9/1/28
f 10/1/29 16/1/29 9/1/29
f 5/1/30 19/1/30 13/1/30
f 19/1/31 3/9/31 26/8/31
f 13/1/32 19/1/32 26/8/32
f 31/1/33 13/1/33 26/1/33
f 15/1/34 9/1/34 21/1/34
f 11/10/35 28/10/35 21/1/35
f 28/10/36 15/1/36 21/1/36
f 33/1/37 28/10/37 15/1/37
f 6/5/38 14/1/38 20/1/38
f 4/1/39 27/1/39 20/1/39
f 20/1/40 14/1/40 27/1/40
f 27/1/41 14/1/41 30/1/41
f 10/1/42 16/1/42 22/1/42
f 22/1/43 29/1/43 12/1/43
f 16/1/44 29/1/44 22/1/44
f 29/1/45 16/1/45 32/2/45
f 15/1/11 33/1/11 16/1/11
f 32/2/11 16/1/11 33/10/11
l 24 8
l 2 24
l 22 24
l 20 24
o Cylinder.001
v 1.800000 0.360000 -2.060000
v 1.800000 0.360000 -1.340000
v 2.054559 0.254558 -2.060000
v 2.054559 0.254558 -1.340000
v 2.160000 0.000000 -2.060000
v 2.160000 -0.000000 -1.340000
v 2.054559 -0.254558 -2.060000
v 2.054559 -0.254558 -1.340000
v 1.800000 -0.360000 -2.060000
v 1.800000 -0.360000 -1.340000
v 1.545442 -0.254558 -2.060000
v 1.545442 -0.254558 -1.340000
v 1.440000 0.000000 -2.060000
v 1.440000 -0.000000 -1.340000
v 1.545442 0.254558 -2.060000
v 1.545442 0.254558 -1.340000
v 1.800000 0.000000 -1.951540
vn 0.3827 0.9239 -0.0000
vn 0.9239 0.3827 -0.0000
vn 0.9239 -0.3827 -0.0000
vn 0.3827 -0.9239 -0.0000
vn -0.3827 -0.9239 -0.0000
vn -0.9239 -0.3827 -0.0000
vn -0.0000 -0.0000 1.0000
vn -0.9239 0.3827 -0.0000
vn -0.3827 0.9239 -0.0000
vn -0.1186 0.2864 -0.9507
vn -0.2864 0.1186 -0.9507
vn -0.2864 -0.1186 -0.9507
vn -0.1186 -0.2864 -0.9507
vn 0.2864 -0.1186 -0.9507
vn 0.1186 -0.2864 -0.9507
vn 0.2864 0.1186 -0.9507
vn 0.1186 0.2864 -0.9507
vt 1.000000 0.500000
vt 1.000000 1.000000
vt 0.875000 1.000000
vt 0.875000 0.500000
vt 0.750000 1.000000
vt 0.750000 0.500000
vt 0.625000 1.000000
vt 0.625000 0.500000
vt 0.500000 1.000000
vt 0.500000 0.500000
vt 0.375000 1.000000
vt 0.375000 0.500000
vt 0.250000 1.000000
vt 0.250000 0.500000
vt 0.419706 0.419706
vt 0.250000 0.490000
vt 0.080294 0.419706
vt 0.010000 0.250000
vt 0.080294 0.080294
vt 0.250000 0.010000
vt 0.419706 0.080294
vt 0.490000 0.250000
vt 0.125000 1.000000
vt 0.125000 0.500000
vt 0.000000 1.000000
vt 0.000000 0.500000
vt 0.000000 0.000000
s 0
f 34/11/46 35/12/46 37/13/46 36/14/46
f 36/14/47 37/13/47 39/15/47 38/16/47
f 38/16/48 39/15/48 41/17/48 40/18/48
f 40/18/49 41/17/49 43/19/49 42/20/49
f 42/20/50 43/19/50 45/21/50 44/22/50
f 44/22/51 45/21/51 47/23/51 46/24/51
f 37/25/52 35/26/52 49/27/52 47/28/52 45/29/52 43/30/52 41/31/52 39/32/52
f 46/24/53 47/23/53 49/33/53 48/34/53
f 48/34/54 49/33/54 35/35/54 34/36/54
f 50/37/55 40/18/55 42/20/55
f 40/18/56 50/37/56 38/16/56
f 38/16/57 50/37/57 36/14/57
f 36/14/58 50/37/58 34/11/58
f 46/24/59 48/34/59 50/37/59
f 34/11/60 50/37/60 48/34/60
f 46/24/61 50/37/61 44/22/61
f 42/20/62 44/22/62 50/37/62
o Cylinder.002
v -1.800000 0.360000 -2.060000
v -1.800000 0.360000 -1.340000
v -1.545442 0.254558 -2.060000
v -1.545442 0.254558 -1.340000
v -1.440000 0.000000 -2.060000
v -1.440000 -0.000000 -1.340000
v -1.545442 -0.254558 -2.060000
v -1.545442 -0.254558 -1.340000
v -1.800000 -0.360000 -2.060000
v -1.800000 -0.360000 -1.340000
v -2.054559 -0.254558 -2.060000
v -2.054559 -0.254558 -1.340000
v -2.160000 0.000000 -2.060000
v -2.160000 -0.000000 -1.340000
v -2.054559 0.254558 -2.060000
v -2.054559 0.254558 -1.340000
v -1.800000 0.000000 -1.951540
vn 0.3827 0.9239 -0.0000
vn 0.9239 0.3827 -0.0000
vn 0.9239 -0.3827 -0.0000
vn 0.3827 -0.9239 -0.0000
vn -0.3827 -0.9239 -0.0000
vn -0.9239 -0.3827 -0.0000
vn -0.0000 -0.0000 1.0000
vn -0.9239 0.3827 -0.0000
vn -0.3827 0.9239 -0.0000
vn -0.1186 0.2864 -0.9507
vn -0.2864 0.1186 -0.9507
vn -0.2864 -0.1186 -0.9507
vn -0.1186 -0.2864 -0.9507
vn 0.2864 -0.1186 -0.9507
vn 0.1186 -0.2864 -0.9507
vn 0.2864 0.1186 -0.9507
vn 0.1186 0.2864 -0.9507
vt 1.000000 0.500000
vt 1.000000 1.000000
vt 0.875000 1.000000
vt 0.875000 0.500000
vt 0.750000 1.000000
vt 0.750000 0.500000
vt 0.625000 1.000000
vt 0.625000 0.500000
vt 0.500000 1.000000
vt 0.500000 0.500000
vt 0.375000 1.000000
vt 0.375000 0.500000
vt 0.250000 1.000000
vt 0.250000 0.500000
vt 0.419706 0.419706
vt 0.250000 0.490000
vt 0.080294 0.419706
vt 0.010000 0.250000
vt 0.080294 0.080294
vt 0.250000 0.010000
vt 0.419706 0.080294
vt 0.490000 0.250000
vt 0.125000 1.000000
vt 0.125000 0.500000
vt 0.000000 1.000000
vt 0.000000 0.500000
vt 0.000000 0.000000
s 0
f 51/38/63 52/39/63 54/40/63 53/41/63
f 53/41/64 54/40/64 56/42/64 55/43/64
f 55/43/65 56/42/65 58/44/65 57/45/65
f 57/45/66 58/44/66 60/46/66 59/47/66
f 59/47/67 60/46/67 62/48/67 61/49/67
f 61/49/68 62/48/68 64/50/68 63/51/68
f 54/52/69 52/53/69 66/54/69 64/55/69 62/56/69 60/57/69 58/58/69 56/59/69
f 63/51/70 64/50/70 66/60/70 65/61/70
f 65/61/71 66/60/71 52/62/71 51/63/71
f 67/64/72 57/45/72 59/47/72
f 57/45/73 67/64/73 55/43/73
f 55/43/74 67/64/74 53/41/74
f 53/41/75 67/64/75 51/38/75
f 63/51/76 65/61/76 67/64/76
f 51/38/77 67/64/77 65/61/77
f 63/51/78 67/64/78 61/49/78
f 59/47/79 61/49/79 67/64/79
